<?xml version="1.0" encoding="utf-8"?>
<!-- Generator: Adobe Illustrator 28.1.0, SVG Export Plug-In . SVG Version: 6.00 Build 0)  -->
<svg version="1.1" id="Layer_1" xmlns="http://www.w3.org/2000/svg" xmlns:xlink="http://www.w3.org/1999/xlink" x="0px" y="0px"
	 viewBox="0 0 512 512" style="enable-background:new 0 0 512 512;" xml:space="preserve">
<style type="text/css">
	.st0{fill:#E34E26;}
	.st1{fill:#EF662A;}
	.st2{fill:#FFFFFF;}
	.st3{fill:#EBEBEB;}
</style>
<g id="Guides_to_delete">
	<g>
		<polygon class="st0" points="107.1,421.1 74,49.6 437.7,49.6 404.5,421.1 255.8,462.4 		"/>
		<polygon class="st1" points="255.9,80 255.9,430.8 376.2,397.5 404.5,80 		"/>
		<polygon class="st2" points="141.8,125.6 154,263.3 311.9,263.3 306.6,322.4 255.8,336.2 205.1,322.4 201.7,284.5 155.9,284.5 
			162.5,357.6 255.8,383.6 349.2,357.6 361.7,217.8 195.7,217.8 191.5,171.1 365.7,171.1 365.9,171.1 370,125.6 		"/>
		<g>
			<polygon class="st3" points="255.9,125.6 141.8,125.6 154,263.3 255.9,263.3 255.9,217.8 195.7,217.8 191.5,171.1 255.9,171.1 
							"/>
			<polygon class="st3" points="255.9,336.1 255.8,336.2 205.1,322.4 201.7,284.5 155.9,284.5 162.5,357.6 255.8,383.6 255.9,383.5 
							"/>
		</g>
	</g>
</g>
</svg>
